<?xml version="1.0" encoding="UTF-8"?>
<svg viewBox="0 0 610.92999 540.35999" xmlns="http://www.w3.org/2000/svg" xmlns:xlink="http://www.w3.org/1999/xlink">
 <path d="m580.78 24.981c-36.781-5.4819-259.34 77.046-331.18 247.73-14.354 12.932 15.858-59.098-3.6544-35.968-13.029 15.445-28.559 60.125-41.699 75.361s22.001-81.18-11.539-19.232c-9.0607 16.736-21.631 46.973-31.208 60.936s15.644-83.057-25.664 21.949c-5.0652 12.876-12.35 22.758-16.014 31.871s-5.5562 16.566-5.3831 21.912 2.4117 8.5855 7.0094 9.2708 11.554-1.1836 20.433-5.1808 53.888-12.76 29.618-14.824c-21.942-1.8656 31.147-17.599 47.123-26.603 28.886-16.279-27.948-0.22278-11.475-13.158s87.581-45.658 107.09-56.567c54.776-30.627-60.973 11.099-41.175 0.28893 29.67-16.2 130.21-78.519 146.4-92.73s33.253-31.121 47.607-44.053c114.83-103.46 150.48-155.52 113.7-161z" fill="none" stroke="#000" stroke-linecap="round" stroke-width="10.76"/>
 <path d="m476.32 106.46c-24.494 9.0294-102.57 71.151-217.4 174.61s-200.7 191.11-241.93 239.22c54.099-27.618 205.53-180.25 320.36-283.71s126.18-112.57 138.97-130.12z" fill="#fff" stroke="#000" stroke-linecap="round" stroke-width="10.76"/>
 <path d="m32.845 510.69s154.83-67.902 214.02-40.262c13.54 6.3215 11.06 36.648 24.369 43.441 49.024 25.02 182.24-21.191 182.24-21.191" fill="none" stroke="#000" stroke-width="10.76"/>
</svg>
